<svg
  width="1128"
  height="1151"
  viewBox="0 0 1128 1151"
  fill="none"
  xmlns="http://www.w3.org/2000/svg"
>
  <g clip-path="url(#clip0_3335_1717)">
    <path
      d="M1128 575.5C1128 257.66 875.489 0 564 0C252.511 0 0 257.66 0 575.5C0 893.34 252.511 1151 564 1151C875.489 1151 1128 893.34 1128 575.5Z"
      fill="black"
    />
    <path
      d="M564 1093.45C497.341 1093.45 431.335 1080.05 369.749 1054.02C308.165 1027.99 252.207 989.842 205.073 941.746C157.938 893.65 120.548 836.551 95.0386 773.711C69.5294 710.87 56.3999 643.518 56.3999 575.5H124.079C124.079 634.45 135.458 692.821 157.566 747.283C179.673 801.745 212.079 851.23 252.929 892.914C293.78 934.597 342.276 967.663 395.649 990.221C449.023 1012.78 506.228 1024.39 564 1024.39V1093.45Z"
      fill="white"
    />
    <path
      d="M564 955.33C465.276 955.33 370.595 915.312 300.787 844.08C230.978 772.848 191.76 676.237 191.76 575.5C191.76 474.763 230.978 378.152 300.787 306.92C370.595 235.688 465.276 195.67 564 195.67V264.713C483.221 264.713 405.75 297.456 348.632 355.741C291.512 414.024 259.423 493.074 259.423 575.5C259.423 657.925 291.512 736.976 348.632 795.259C405.75 853.544 483.221 886.287 564 886.287V955.33Z"
      fill="white"
    />
    <path
      d="M564 817.21C517.15 817.21 471.352 803.035 432.396 776.475C393.442 749.916 363.08 712.165 345.151 667.999C327.222 623.832 322.531 575.232 331.671 528.345C340.812 481.458 363.373 438.39 396.501 404.586C429.629 370.782 471.837 347.761 517.787 338.435C563.737 329.108 611.366 333.895 654.65 352.189C697.934 370.484 734.93 401.464 760.959 441.213C786.987 480.963 800.88 527.695 800.88 575.5H564V817.21Z"
      fill="white"
    />
  </g>
  <defs>
    <clipPath id="clip0_3335_1717">
      <rect width="1128" height="1151" fill="white" />
    </clipPath>
  </defs>
</svg>
