<svg
  width="512"
  height="512"
  viewBox="0 0 512 512"
  fill="none"
  xmlns="http://www.w3.org/2000/svg"
>
  <rect width="512" height="512" />
  <circle cx="256" cy="256" r="100.174" fill="currentColor" />
  <mask id="path-3-inside-1_3370_1805" fill="currentColor">
    <path
      d="M256 416.885C229.542 416.885 203.493 410.36 180.159 397.888C156.825 385.416 136.928 367.382 122.229 345.383C107.53 323.384 98.4826 298.1 95.8893 271.77C93.296 245.439 97.2363 218.876 107.361 194.432C117.486 169.988 133.483 148.419 153.935 131.634C174.388 114.849 198.663 103.368 224.613 98.2061C250.562 93.0445 277.384 94.3621 302.703 102.042C328.021 109.723 351.055 123.529 369.763 142.237L346.146 165.854C331.321 151.03 313.069 140.09 293.007 134.004C272.945 127.918 251.691 126.874 231.129 130.964C210.567 135.054 191.33 144.153 175.124 157.453C158.918 170.753 146.242 187.844 138.219 207.214C130.196 226.583 127.074 247.632 129.129 268.496C131.183 289.36 138.352 309.395 150 326.827C161.647 344.259 177.414 358.549 195.904 368.432C214.393 378.315 235.035 383.485 256 383.485L256 416.885Z"
    />
  </mask>
  <path
    d="M256 416.885C229.542 416.885 203.493 410.36 180.159 397.888C156.825 385.416 136.928 367.382 122.229 345.383C107.53 323.384 98.4826 298.1 95.8893 271.77C93.296 245.439 97.2363 218.876 107.361 194.432C117.486 169.988 133.483 148.419 153.935 131.634C174.388 114.849 198.663 103.368 224.613 98.2061C250.562 93.0445 277.384 94.3621 302.703 102.042C328.021 109.723 351.055 123.529 369.763 142.237L346.146 165.854C331.321 151.03 313.069 140.09 293.007 134.004C272.945 127.918 251.691 126.874 231.129 130.964C210.567 135.054 191.33 144.153 175.124 157.453C158.918 170.753 146.242 187.844 138.219 207.214C130.196 226.583 127.074 247.632 129.129 268.496C131.183 289.36 138.352 309.395 150 326.827C161.647 344.259 177.414 358.549 195.904 368.432C214.393 378.315 235.035 383.485 256 383.485L256 416.885Z"
    stroke="white"
    stroke-width="100"
    mask="url(#path-3-inside-1_3370_1805)"
  />
  <mask id="path-4-inside-2_3370_1805" fill="currentColor">
    <path
      d="M256 480.632C196.424 480.632 139.288 456.966 97.1609 414.839C55.0341 372.712 31.3676 315.576 31.3676 256C31.3676 196.424 55.0341 139.288 97.1609 97.161C139.288 55.0342 196.424 31.3677 256 31.3677L256 66.4556C205.73 66.4556 157.518 86.4254 121.972 121.972C86.4253 157.518 66.4555 205.73 66.4555 256C66.4555 306.27 86.4253 354.482 121.972 390.028C157.518 425.575 205.73 445.545 256 445.545L256 480.632Z"
    />
  </mask>
  <path
    d="M256 480.632C196.424 480.632 139.288 456.966 97.1609 414.839C55.0341 372.712 31.3676 315.576 31.3676 256C31.3676 196.424 55.0341 139.288 97.1609 97.161C139.288 55.0342 196.424 31.3677 256 31.3677L256 66.4556C205.73 66.4556 157.518 86.4254 121.972 121.972C86.4253 157.518 66.4555 205.73 66.4555 256C66.4555 306.27 86.4253 354.482 121.972 390.028C157.518 425.575 205.73 445.545 256 445.545L256 480.632Z"
    stroke="white"
    stroke-width="120"
    mask="url(#path-4-inside-2_3370_1805)"
  />
</svg>
